<svg width="24" height="24" viewBox="0 0 24 24" fill="none" xmlns="http://www.w3.org/2000/svg">
<path d="M12 22C10.6167 22 9.31667 21.7375 8.1 21.2125C6.88333 20.6875 5.825 19.975 4.925 19.075C4.025 18.175 3.3125 17.1167 2.7875 15.9C2.2625 14.6833 2 13.3833 2 12C2 10.6167 2.2625 9.31667 2.7875 8.1C3.3125 6.88333 4.025 5.825 4.925 4.925C5.825 4.025 6.88333 3.3125 8.1 2.7875C9.31667 2.2625 10.6167 2 12 2C13.3833 2 14.6833 2.2625 15.9 2.7875C17.1167 3.3125 18.175 4.025 19.075 4.925C19.975 5.825 20.6875 6.88333 21.2125 8.1C21.7375 9.31667 22 10.6167 22 12C22 13.3833 21.7375 14.6833 21.2125 15.9C20.6875 17.1167 19.975 18.175 19.075 19.075C18.175 19.975 17.1167 20.6875 15.9 21.2125C14.6833 21.7375 13.3833 22 12 22ZM12 20C12.9 20 13.7667 19.8542 14.6 19.5625C15.0781 19.3952 15.5342 19.1853 15.9684 18.933C16.4868 18.6317 16.5269 17.9269 16.103 17.503L6.49703 7.89703C6.07311 7.47311 5.36828 7.51324 5.06703 8.03157C4.81467 8.46577 4.60483 8.92192 4.4375 9.4C4.14583 10.2333 4 11.1 4 12C4 14.2333 4.775 16.125 6.325 17.675C7.875 19.225 9.76667 20 12 20ZM17.503 16.103C17.9269 16.5269 18.6317 16.4868 18.933 15.9684C19.1853 15.5342 19.3952 15.0781 19.5625 14.6C19.8542 13.7667 20 12.9 20 12C20 9.76667 19.225 7.875 17.675 6.325C16.125 4.775 14.2333 4 12 4C11.1 4 10.2333 4.14583 9.4 4.4375C8.92192 4.60483 8.46577 4.81467 8.03157 5.06703C7.51324 5.36828 7.47311 6.07311 7.89703 6.49703L17.503 16.103Z" fill="#104E5B"/>
</svg>
