<svg width="16" height="16" viewBox="0 0 16 16" fill="none" xmlns="http://www.w3.org/2000/svg">
<g clip-path="url(#clip0_4743_96212)">
<path d="M8.00001 11.3148L8.98334 10.3315H10.3333V8.98151L11.3167 7.99818L10.3333 7.01484V5.66484H8.98334L8.00001 4.68151L7.01667 5.66484H5.66668V7.01484L4.68334 7.99818L5.66668 8.98151V10.3315H7.01667L8.00001 11.3148ZM8.00001 15.5315L5.76667 13.3315H2.66667V10.2315L0.466675 7.99818L2.66667 5.76484V2.66484H5.76667L8.00001 0.464844L10.2333 2.66484H13.3333V5.76484L15.5333 7.99818L13.3333 10.2315V13.3315H10.2333L8.00001 15.5315ZM8.00001 13.6648L9.66668 11.9982H12V9.66484L13.6667 7.99818L12 6.33151V3.99818H9.66668L8.00001 2.33151L6.33334 3.99818H4.00001V6.33151L2.33334 7.99818L4.00001 9.66484V11.9982H6.33334L8.00001 13.6648Z" fill="#F18D51"/>
</g>
<defs>
<clipPath id="clip0_4743_96212">
<rect width="16" height="16" fill="white"/>
</clipPath>
</defs>
</svg>
