<svg width="21" height="20" viewBox="0 0 21 20" fill="none" xmlns="http://www.w3.org/2000/svg">
<path d="M5.50065 19.1654C5.04232 19.1654 4.64996 19.0022 4.32357 18.6758C3.99718 18.3494 3.83398 17.957 3.83398 17.4987V8.33203C3.83398 7.8737 3.99718 7.48134 4.32357 7.15495C4.64996 6.82856 5.04232 6.66536 5.50065 6.66536H8.00065V8.33203H5.50065V17.4987H15.5007V8.33203H13.0007V6.66536H15.5007C15.959 6.66536 16.3513 6.82856 16.6777 7.15495C17.0041 7.48134 17.1673 7.8737 17.1673 8.33203V17.4987C17.1673 17.957 17.0041 18.3494 16.6777 18.6758C16.3513 19.0022 15.959 19.1654 15.5007 19.1654H5.50065ZM9.66732 13.332V4.01953L8.33398 5.35286L7.16732 4.16536L10.5007 0.832031L13.834 4.16536L12.6673 5.35286L11.334 4.01953V13.332H9.66732Z" fill="#104E5B"/>
</svg>
