<svg width="15" height="20" viewBox="0 0 15 20" fill="none" xmlns="http://www.w3.org/2000/svg">
<path d="M2.50065 19.1654C2.04232 19.1654 1.64996 19.0022 1.32357 18.6758C0.997179 18.3494 0.833984 17.957 0.833984 17.4987V8.33203C0.833984 7.8737 0.997179 7.48134 1.32357 7.15495C1.64996 6.82856 2.04232 6.66536 2.50065 6.66536H5.00065V8.33203H2.50065V17.4987H12.5007V8.33203H10.0007V6.66536H12.5007C12.959 6.66536 13.3513 6.82856 13.6777 7.15495C14.0041 7.48134 14.1673 7.8737 14.1673 8.33203V17.4987C14.1673 17.957 14.0041 18.3494 13.6777 18.6758C13.3513 19.0022 12.959 19.1654 12.5007 19.1654H2.50065ZM6.66732 13.332V4.01953L5.33398 5.35286L4.16732 4.16536L7.50065 0.832031L10.834 4.16536L9.66732 5.35286L8.33398 4.01953V13.332H6.66732Z" fill="#104E5B"/>
</svg>
